<?xml version="1.0" standalone="no"?>
<!DOCTYPE svg PUBLIC "-//W3C//DTD SVG 20010904//EN"
 "http://www.w3.org/TR/2001/REC-SVG-20010904/DTD/svg10.dtd">
<svg version="1.0" xmlns="http://www.w3.org/2000/svg"
 width="1024.000000pt" height="1024.000000pt" viewBox="0 0 1024.000000 1024.000000"
 preserveAspectRatio="xMidYMid meet">

<g transform="translate(0.000000,1024.000000) scale(0.100000,-0.100000)"
fill="#000000" stroke="none">
<path d="M3655 8456 c-200 -39 -468 -135 -600 -214 -115 -69 -277 -202 -401
-327 -171 -175 -361 -526 -400 -740 -21 -111 -30 -445 -15 -570 28 -239 147
-570 256 -710 25 -32 45 -64 45 -71 0 -10 -65 -13 -288 -16 l-287 -3 -66 -32
c-120 -60 -215 -180 -250 -316 -19 -78 -8 -193 28 -268 35 -75 120 -172 176
-200 48 -25 124 -49 154 -49 30 0 35 -13 77 -180 51 -209 130 -499 186 -690
27 -91 73 -254 104 -362 81 -294 161 -467 298 -648 112 -148 223 -248 393
-351 161 -98 320 -156 518 -189 119 -19 168 -20 1478 -21 1024 -2 1373 1 1434
10 437 67 804 302 1041 666 111 172 127 214 291 795 83 296 190 690 224 831
l31 127 54 7 c134 16 275 129 329 261 53 129 44 289 -21 400 -39 66 -121 141
-193 177 l-66 32 -950 3 -950 2 -28 59 c-35 73 -95 143 -154 178 l-45 26 8 91
c4 50 8 440 9 866 0 426 4 829 9 895 13 198 -22 309 -131 405 -89 78 -230 105
-323 63 -57 -26 -151 -123 -184 -189 -22 -45 -27 -74 -39 -230 -12 -174 -12
-181 9 -254 12 -41 30 -90 39 -107 9 -18 15 -43 13 -55 -3 -18 -12 -6 -40 52
-90 190 -338 461 -543 593 -171 109 -400 201 -599 238 -143 27 -521 36 -631
15z m770 -202 c76 -20 316 -136 407 -198 32 -21 80 -58 107 -82 50 -45 131
-156 131 -179 0 -7 -23 -22 -51 -33 l-51 -22 -51 26 c-59 31 -226 75 -412 109
-117 21 -131 26 -150 52 -11 15 -57 68 -102 118 -48 52 -83 99 -83 111 0 13
23 43 59 77 65 62 47 60 196 21z m-983 -44 c0 -16 1 -35 2 -41 1 -7 -6 -15
-14 -19 -67 -34 -267 -157 -307 -189 -49 -39 -49 -39 -156 -43 -59 -2 -107 -3
-107 -2 0 1 33 26 73 56 105 81 191 132 313 188 60 28 123 57 139 65 45 21 55
18 57 -15z m2418 -15 c45 -44 61 -84 61 -152 0 -26 -3 -469 -7 -983 l-6 -935
-134 0 -134 0 -2 235 c-1 129 -1 314 1 410 2 100 -4 265 -13 385 -14 188 -30
477 -43 802 -6 133 9 192 60 240 42 40 51 43 120 40 51 -3 61 -7 97 -42z
m-1898 -124 l107 -6 116 -130 117 -130 -7 -110 c-4 -60 -10 -163 -14 -227 -4
-65 -9 -119 -12 -121 -4 -3 -102 -70 -329 -224 l-75 -51 -140 14 c-77 7 -197
13 -267 14 l-126 0 -38 53 c-55 76 -152 196 -192 239 l-35 37 17 73 c23 102
36 185 36 241 0 61 10 79 57 108 21 12 47 30 58 40 11 9 83 56 160 102 l140
86 160 -1 c88 0 208 -3 267 -7z m1234 -431 c145 -71 265 -419 251 -725 -11
-218 -76 -417 -176 -535 l-30 -35 -53 29 c-91 50 -169 107 -178 129 -5 12 -14
72 -19 132 -6 61 -25 196 -42 301 l-32 192 36 63 c20 35 51 92 69 126 l32 62
-17 122 c-10 67 -15 124 -13 127 5 4 100 29 120 31 5 1 29 -8 52 -19z m-2776
-518 c-38 -75 -69 -135 -69 -132 -3 26 25 148 56 247 l38 122 22 -50 23 -50
-70 -137z m607 152 c26 -31 85 -100 131 -153 78 -91 83 -98 76 -131 -3 -19 -8
-145 -10 -278 -2 -167 -7 -248 -15 -258 -9 -11 -200 -161 -269 -212 -36 -26
-424 107 -461 158 -10 14 -30 67 -45 118 -36 127 -31 205 23 362 44 127 108
276 130 301 17 20 335 145 375 148 9 0 38 -24 65 -55z m1389 -64 c27 -10 119
-45 204 -76 85 -31 160 -63 166 -70 10 -13 58 -287 84 -484 l12 -85 -64 -58
c-88 -80 -370 -267 -404 -267 -51 0 -310 164 -416 263 l-48 45 0 99 c0 55 3
168 7 252 l6 152 98 70 c136 96 270 179 290 179 9 0 38 -9 65 -20z m1053 -870
c1 -36 -2 -116 -6 -179 l-6 -114 -45 -66 c-24 -36 -55 -90 -68 -119 l-24 -53
-141 2 c-77 2 -142 6 -145 10 -2 5 34 46 81 93 93 94 199 248 287 418 58 113
66 114 67 8z m-1555 -4 c114 -94 218 -166 341 -236 l127 -73 -7 -106 c-4 -58
-9 -108 -11 -110 -5 -6 -58 -6 -700 -3 l-582 2 -30 123 c-17 67 -33 143 -37
168 l-7 45 89 64 c159 115 214 150 236 150 12 0 60 -7 107 -16 99 -18 228 -12
330 16 90 24 83 25 144 -24z m2040 -395 c75 -37 128 -92 164 -170 72 -158 -17
-372 -179 -429 -95 -33 -195 -31 -275 7 -107 51 -161 124 -184 251 -32 175 62
328 227 370 73 18 176 6 247 -29z m-648 -294 c6 -3 14 -34 17 -67 11 -122 122
-297 224 -352 71 -39 155 -58 255 -59 142 0 241 37 328 123 69 68 149 219 158
299 l7 54 70 6 c39 3 453 3 920 1 l850 -4 52 -24 c133 -63 192 -236 129 -376
-27 -62 -84 -119 -141 -145 -38 -17 -194 -18 -3094 -20 l-3054 -2 -53 26
c-107 52 -163 135 -172 254 -4 57 -1 75 23 128 41 91 108 142 207 159 52 9
3260 8 3274 -1z m2600 -760 c-4 -24 -22 -104 -42 -178 -19 -74 -43 -172 -54
-219 -30 -130 -211 -771 -267 -945 -58 -182 -199 -404 -341 -537 -96 -90 -202
-160 -348 -229 -150 -72 -269 -106 -399 -118 -159 -13 -2746 -6 -2830 8 -313
53 -553 175 -750 382 -142 149 -242 325 -295 519 -61 221 -122 435 -140 490
-10 30 -41 143 -69 250 -27 107 -64 240 -81 295 -17 55 -39 138 -50 185 -10
47 -21 97 -25 113 l-7 27 2852 0 2852 0 -6 -43z"/>
<path d="M5769 5811 c-49 -16 -71 -33 -100 -79 -53 -84 -33 -173 50 -229 68
-46 182 -21 233 49 32 46 33 139 0 185 -36 51 -132 90 -183 74z"/>
<path d="M5530 4533 c-14 -9 -28 -22 -32 -27 -4 -6 -8 -137 -8 -290 l0 -279
-202 6 c-112 4 -290 7 -395 7 l-193 0 0 269 c0 256 -1 269 -21 295 -16 20 -29
26 -59 26 -69 0 -70 -7 -70 -312 0 -147 -4 -269 -8 -272 -13 -8 -742 -9 -750
-2 -4 4 -9 128 -12 276 -5 245 -7 270 -24 289 -24 27 -77 28 -100 2 -15 -16
-17 -51 -19 -297 l-3 -279 -323 0 -323 0 -25 -29 c-27 -32 -25 -65 5 -100 16
-17 33 -18 323 -14 168 3 315 1 327 -3 22 -8 22 -10 22 -308 0 -165 3 -307 6
-316 9 -22 61 -47 83 -40 10 3 27 15 37 26 17 19 18 41 15 329 l-3 310 386 0
385 0 3 -314 c3 -292 4 -315 22 -335 26 -29 76 -28 104 2 22 23 22 29 22 338
l0 314 387 -2 c214 -1 391 -2 396 -3 4 0 7 -138 7 -306 l0 -306 29 -29 c36
-36 64 -37 98 -3 l26 26 -8 308 c-6 293 -6 307 12 311 10 2 188 3 395 1 l376
-3 4 -308 c3 -331 3 -332 57 -352 21 -8 55 -2 83 15 1 0 5 147 8 325 l5 324
285 1 c255 1 289 3 313 19 40 26 46 63 13 95 l-27 27 -297 1 -297 0 -3 282 -2
281 -27 21 c-30 23 -65 21 -95 -7 -16 -15 -18 -42 -18 -295 l0 -278 -392 2
-393 3 3 249 c2 137 1 264 -2 281 -5 25 -15 37 -40 49 -41 19 -36 20 -66 -1z"/>
<path d="M3209 4412 c-76 -39 -88 -125 -24 -189 37 -37 69 -42 114 -18 92 47
110 160 33 198 -47 24 -87 27 -123 9z"/>
<path d="M5985 4418 c-52 -28 -65 -50 -65 -106 0 -48 4 -58 34 -88 25 -25 43
-34 66 -34 99 0 169 130 103 192 -52 48 -96 59 -138 36z"/>
<path d="M6879 4413 c-52 -32 -73 -97 -48 -146 34 -66 93 -91 148 -63 61 32
84 141 39 183 -51 46 -94 54 -139 26z"/>
<path d="M4120 4413 c-41 -15 -60 -46 -60 -99 0 -43 5 -57 28 -82 38 -40 75
-49 118 -28 89 42 99 163 17 205 -22 11 -77 14 -103 4z"/>
<path d="M5030 4393 c-42 -35 -53 -65 -40 -113 20 -75 110 -115 168 -74 53 37
70 134 30 171 -56 51 -110 57 -158 16z"/>
<path d="M3189 3541 c-31 -31 -39 -46 -39 -76 0 -52 55 -105 108 -105 103 0
167 115 99 177 -62 57 -114 58 -168 4z"/>
<path d="M5995 3566 c-53 -24 -80 -62 -80 -115 0 -61 23 -95 79 -116 41 -16
46 -16 80 0 78 37 107 136 56 190 -43 47 -90 60 -135 41z"/>
<path d="M4094 3536 c-26 -26 -34 -42 -34 -70 0 -134 154 -173 215 -56 25 49
19 88 -19 126 -29 29 -41 34 -81 34 -40 0 -52 -5 -81 -34z"/>
<path d="M5036 3549 c-66 -52 -70 -125 -10 -178 81 -72 194 -17 194 95 0 28
-8 44 -34 70 -29 29 -41 34 -79 34 -30 0 -53 -7 -71 -21z"/>
<path d="M6866 3540 c-42 -37 -53 -78 -32 -118 25 -48 63 -72 113 -72 38 0 50
5 79 34 104 104 -50 252 -160 156z"/>
<path d="M7010 8206 c-334 -99 -532 -239 -635 -450 -66 -134 -90 -236 -90
-376 1 -104 4 -124 34 -210 33 -92 33 -97 21 -155 -8 -33 -14 -89 -14 -125
l-1 -65 37 -3 c46 -4 72 21 126 118 44 81 39 76 63 62 36 -23 165 -17 252 11
60 19 77 22 73 11 -3 -8 -18 -58 -33 -112 -23 -83 -27 -117 -28 -231 l-1 -134
-111 -106 c-123 -116 -228 -237 -264 -306 -27 -51 -21 -85 23 -118 52 -39 72
-23 369 295 l126 135 59 -19 c150 -48 338 -61 467 -32 90 20 254 98 329 158
94 75 172 178 244 321 93 187 134 365 134 591 0 130 3 128 -210 132 -271 5
-498 -35 -660 -117 -34 -18 -65 -30 -68 -27 -2 3 8 62 23 131 21 97 27 151 27
238 -1 130 -32 334 -60 380 -16 28 -24 32 -68 34 -32 2 -88 -9 -164 -31z m130
-268 c14 -143 6 -258 -26 -382 -49 -189 -154 -376 -211 -376 -16 0 -57 -7 -93
-16 -46 -11 -86 -13 -138 -9 l-73 7 36 64 c19 36 71 116 114 178 84 119 201
330 201 361 0 26 -29 55 -55 55 -32 0 -91 -68 -150 -173 -28 -48 -85 -136
-129 -195 -43 -59 -92 -131 -109 -161 l-30 -53 -14 25 c-26 50 -33 157 -19
257 29 193 149 351 338 447 62 32 281 102 319 103 l27 0 12 -132z m910 -511
c0 -43 -39 -241 -66 -332 -87 -300 -266 -491 -515 -550 -114 -27 -288 -13
-337 28 -15 12 25 51 182 174 304 241 436 362 436 403 0 26 -32 70 -50 70 -26
0 -68 -26 -118 -74 -31 -29 -109 -93 -172 -141 -63 -49 -131 -101 -150 -115
-196 -152 -281 -209 -287 -195 -9 24 6 146 27 219 33 115 86 203 175 291 99
97 173 142 313 188 136 46 199 54 400 56 l162 1 0 -23z"/>
<path d="M2318 2823 c7 -3 16 -2 19 1 4 3 -2 6 -13 5 -11 0 -14 -3 -6 -6z"/>
<path d="M3685 2073 c-83 -18 -114 -49 -95 -97 22 -59 -98 -55 1702 -55 1074
-1 1663 2 1687 9 21 5 48 21 61 35 20 21 22 30 14 53 -21 61 86 57 -1709 58
-902 1 -1649 -1 -1660 -3z"/>
<path d="M3113 2050 c-55 -33 -56 -90 -2 -117 26 -14 226 -16 334 -4 54 5 61
9 74 36 8 17 18 33 24 36 5 4 7 15 5 25 -6 33 -62 43 -238 43 -147 1 -169 -1
-197 -19z"/>
</g>
</svg>
